<svg xmlns="http://www.w3.org/2000/svg" version="1.1" xmlns:xlink="http://www.w3.org/1999/xlink" xmlns:svgjs="http://svgjs.dev/svgjs" width="1440" height="1000" preserveAspectRatio="none" viewBox="0 0 1440 1000"><g mask="url(&quot;#SvgjsMask1208&quot;)" fill="none"><rect width="1440" height="1000" x="0" y="0" fill="url(&quot;#SvgjsLinearGradient1209&quot;)"></rect><path d="M1536 1000L0 1000 L0 325.84Q100.2 306.04, 120 406.24Q140.76 355, 192 375.77Q151.57 263.34, 264 222.91Q397.58 236.49, 384 370.07Q466.32 380.39, 456 462.72Q406.56 293.28, 576 243.84Q742.76 290.61, 696 457.37Q661.21 350.58, 768 315.79Q775.06 250.85, 840 257.91Q858.95 204.87, 912 223.82Q995.19 187.01, 1032 270.2Q1162.21 328.41, 1104 458.63Q1098.77 333.39, 1224 328.16Q1217.82 249.98, 1296 243.79Q1344.05 171.84, 1416 219.89Q1523.86 207.75, 1536 315.61z" fill="#182f5d"></path><path d="M1536 1000L0 1000 L0 596.04Q69.79 545.83, 120 615.61Q127.38 550.99, 192 558.36Q173.09 467.45, 264 448.54Q315.04 379.58, 384 430.61Q449.97 424.58, 456 490.54Q538.8 453.34, 576 536.13Q662.56 502.69, 696 589.26Q738.16 559.42, 768 601.58Q861.66 575.25, 888 668.91Q917.59 626.5, 960 656.08Q993.29 569.37, 1080 602.66Q1044.13 494.79, 1152 458.93Q1285.71 520.64, 1224 654.35Q1143.44 501.8, 1296 421.24Q1461.82 467.06, 1416 632.88Q1376.27 473.15, 1536 433.42z" fill="#25467d"></path><path d="M1488 1000L0 1000 L0 648.51Q17.81 594.32, 72 612.13Q225.09 693.22, 144 846.31Q138.02 720.33, 264 714.35Q302.71 633.06, 384 671.76Q416.02 583.78, 504 615.81Q585.3 577.11, 624 658.4Q720.08 682.48, 696 778.56Q780.58 791.13, 768 875.71Q724.2 711.91, 888 668.11Q896.28 604.39, 960 612.68Q1030.91 563.6, 1080 634.51Q1204.4 638.91, 1200 763.31Q1198.97 690.28, 1272 689.25Q1274.05 619.3, 1344 621.34Q1371.89 577.24, 1416 605.13Q1465.55 582.68, 1488 632.24z" fill="#356cb1"></path><path d="M1464 1000L0 1000 L0 1017.6Q-10.35 887.25, 120 876.9Q162.09 798.99, 240 841.07Q265.73 794.8, 312 820.52Q395.18 783.7, 432 866.88Q519.71 834.59, 552 922.29Q577.82 828.11, 672 853.92Q707.27 769.19, 792 804.47Q863.14 755.61, 912 826.75Q974.79 817.54, 984 880.32Q1000.31 824.63, 1056 840.94Q1104.39 769.34, 1176 817.73Q1231.59 801.32, 1248 856.91Q1304.72 841.63, 1320 898.35Q1361.97 868.32, 1392 910.28Q1456.4 902.68, 1464 967.08z" fill="white"></path></g><defs><mask id="SvgjsMask1208"><rect width="1440" height="1000" fill="#ffffff"></rect></mask><linearGradient x1="7.64%" y1="-11%" x2="92.36%" y2="111%" gradientUnits="userSpaceOnUse" id="SvgjsLinearGradient1209"><stop stop-color="#0e2a47" offset="0"></stop><stop stop-color="rgba(153, 189, 234, 1)" offset="1"></stop></linearGradient></defs></svg>