<?xml version="1.0" standalone="no"?><svg xmlns="http://www.w3.org/2000/svg" viewBox="0 0 1440 320"><path fill="rgba(153, 189, 234, 1)" fill-opacity="1" d="M0,192L26.7,186.7C53.3,181,107,171,160,181.3C213.3,192,267,224,320,224C373.3,224,427,192,480,192C533.3,192,587,224,640,202.7C693.3,181,747,107,800,74.7C853.3,43,907,53,960,80C1013.3,107,1067,149,1120,192C1173.3,235,1227,277,1280,282.7C1333.3,288,1387,256,1413,240L1440,224L1440,320L1413.3,320C1386.7,320,1333,320,1280,320C1226.7,320,1173,320,1120,320C1066.7,320,1013,320,960,320C906.7,320,853,320,800,320C746.7,320,693,320,640,320C586.7,320,533,320,480,320C426.7,320,373,320,320,320C266.7,320,213,320,160,320C106.7,320,53,320,27,320L0,320Z"></path></svg>