<?xml version="1.0" standalone="no"?><svg xmlns="http://www.w3.org/2000/svg" viewBox="0 0 1440 320"><path fill="#fff" fill-opacity="1" d="M0,320L30,298.7C60,277,120,235,180,224C240,213,300,235,360,245.3C420,256,480,256,540,213.3C600,171,660,85,720,80C780,75,840,149,900,149.3C960,149,1020,75,1080,58.7C1140,43,1200,85,1260,122.7C1320,160,1380,192,1410,208L1440,224L1440,320L1410,320C1380,320,1320,320,1260,320C1200,320,1140,320,1080,320C1020,320,960,320,900,320C840,320,780,320,720,320C660,320,600,320,540,320C480,320,420,320,360,320C300,320,240,320,180,320C120,320,60,320,30,320L0,320Z"></path></svg>